<?xml version="1.0" encoding="UTF-8" standalone="no"?>
<svg
   xmlns:dc="http://purl.org/dc/elements/1.1/"
   xmlns:cc="http://creativecommons.org/ns#"
   xmlns:rdf="http://www.w3.org/1999/02/22-rdf-syntax-ns#"
   xmlns:svg="http://www.w3.org/2000/svg"
   xmlns="http://www.w3.org/2000/svg"
   version="1.1"
   id="svg2"
   viewBox="0 0 206.10376 583.21934"
   height="164.59746mm"
   width="58.167061mm">
  <defs
     id="defs4" />
  <metadata
     id="metadata7">
    <rdf:RDF>
      <cc:Work
         rdf:about="">
        <dc:format>image/svg+xml</dc:format>
        <dc:type
           rdf:resource="http://purl.org/dc/dcmitype/StillImage" />
        <dc:title></dc:title>
      </cc:Work>
    </rdf:RDF>
  </metadata>
  <g
     transform="translate(-160.15189,-127.13036)"
     id="layer1">
    <g
       transform="translate(-60.024987,105.02482)"
       id="g4141">
      <title
         id="title4143">Layer 1</title>
      <g
         transform="matrix(0,-1,1,0,9.1556396,637.30188)"
         id="g10">
        <path
           style="fill:#ffffff;fill-rule:evenodd"
           d="m 37.92889,243.69876 c -3.70825,14.93497 -4.67807,42.61874 -4.67807,70.34998 0,27.63626 0.96982,55.31875 4.61963,70.20626 2.73999,11.60877 13.4047,17.17374 28.80741,16.74625 l 453.89953,0 c 20.53351,0.1875 39.92932,0.23624 48.93927,-1.19125 19.96393,-3.23624 33.9411,-8.98877 37.0199,-18.50251 5.8772,-17.54998 8.60968,-42.42874 8.60968,-67.30749 0,-24.87625 -2.67853,-49.79999 -8.55273,-67.35376 -3.08026,-9.51126 -17.11292,-15.21997 -37.07685,-18.45499 -9.00995,-1.42752 -28.40576,-1.42752 -48.93927,-1.23623 l -453.89953,0 c -15.40271,-0.38004 -26.00897,5.13873 -28.74896,16.74374"
           id="path342" />
        <path
           style="fill:#8d8f93;fill-rule:evenodd"
           d="m 493.61499,398.42749 -66.40118,-3.45999 c -8.42005,-0.43625 -13.27259,-2.39374 -13.74506,-4.25376 l -1.43127,-5.49124 c -0.28376,-1.14126 3.80627,-1.94748 9.94256,-1.94748 l 12.84497,0 c 13.88752,0 25.305,0.50998 33.53131,1.75126 l 26.40241,3.99246 c 5.75629,0.85876 9.84503,2.065 9.79748,3.52374 l -0.095,4.61127 c 0,0.88125 -5.94745,1.5325 -10.84625,1.27374"
           id="path344" />
        <path
           style="fill:#d2d2d1;fill-rule:evenodd"
           d="m 464.02997,384.97125 4.945,11.70001 -41.66748,-2.1875 c -2.945,-0.14251 -5.94256,-0.57125 -8.84753,-1.285 -5.04126,-1.33252 -4.51874,-2.61627 -5.8963,-8.03751 0,-1.04876 7.42126,-1.42749 8.32385,-1.42749 14.36621,0 28.82495,-0.23748 43.14246,1.23749"
           id="path346" />
        <path
           style="fill:#d2d2d1;fill-rule:evenodd"
           d="m 473.63751,396.90875 -4.75622,-11.22497 c 10.94244,1.61624 22.26123,2.52124 32.86749,5.32623 3.37994,1.09625 2.33124,2.18875 2.28247,5.99502 -0.95001,0.95121 -8.22998,0.95121 -9.46503,0.95121 l -20.92871,-1.04749"
           id="path348" />
        <path
           style="fill:#8d8f93;fill-rule:evenodd"
           d="m 504.65253,397.95624 c 1.38,0 2.52002,0.57 4.23126,2.3775 2.76001,2.90124 1.38251,4.51877 0.47626,7.89624 -0.99878,3.56753 -0.33374,2.99628 -2.70997,6.51752 -1.47631,2.09375 -3.04632,2.3775 -5.66131,2.3775 -1.33118,0 -2.66126,-1.095 -2.37872,-2.3775 l 3.66247,-14.41376 c 0.28498,-1.28375 1.09375,-2.3775 2.38001,-2.3775"
           id="path350" />
        <path
           style="fill:#8d8f93;fill-rule:evenodd"
           d="m 504.88873,397.95624 c 1.33246,0.0463 2.71125,0.90253 4.04377,2.3775 0.47625,0.42752 0.76251,0.90375 0.99749,1.3775 1.90247,-2.80374 3.23627,-8.46499 0.66498,-8.60748 -2.2337,-0.23752 -3.23248,0.095 -4.23376,0.33249 -1.27869,0.23874 -1.89997,2.75876 -1.47248,4.51999"
           id="path352" />
        <path
           style="fill:#8d8f93;fill-rule:evenodd"
           d="m 417.32001,395.57752 2.94873,0 c 1.99505,0 3.66504,0.34249 3.66504,0.75372 l 0,2.72751 c 0,0.40875 -1.61884,0.75125 -3.66504,0.75125 l -2.94873,0 c -2.04499,0 -3.66382,-0.32874 -3.66382,-0.75125 l 0,-2.72751 c 0,-0.42374 1.61883,-0.75372 3.66382,-0.75372"
           id="path354" />
        <path
           style="fill:#8d8f93;fill-rule:evenodd"
           d="m 406.66754,378.5025 0.0624,2.23255 c 31.09125,0.0974 59.69501,0.18994 64.46002,1.00122 l 0,-0.0962 c 23.36878,2.85245 39.7525,9.46497 55.06128,8.03873 10.74249,-1.04501 13.22876,-7.37378 15.04126,-14.26874 5.50379,-20.74002 7.98999,-40.9563 7.98999,-61.41 0,-20.45123 -2.14874,-40.62 -7.92248,-61.31125 -1.88001,-6.84998 -4.29877,-13.17624 -15.10877,-14.2225 -15.30878,-1.47501 -31.62622,5.18374 -55.06128,7.99124 l 0,-0.0463 -8.72748,1.04502 c -0.27002,0.665 -0.47125,1.38125 -0.47125,2.1875 l 8.46381,-1.09375 c 2.88495,22.30874 5.03241,43.95126 5.03241,65.54873 0,21.64002 -2.28247,43.23502 -5.10248,65.45002 -4.02875,-1.23627 -24.44122,-1.04627 -63.71747,-1.04627"
           id="path358" />
        <path
           style="fill:#d2d2d1;fill-rule:evenodd"
           d="m 474.11627,262.96124 c 2.51624,21.69 3.94623,43.61875 2.94501,65.45124 -0.28504,12.89129 -1.80628,26.11502 -3.23248,38.95626 -0.47632,4.18625 -1.04755,8.42127 -1.57007,12.56003 15.22003,1.99747 30.15753,6.46872 45.42755,7.99121 6.94122,0.42877 15.31494,0.52252 19.31244,-6.13623 2.565,-4.51877 3.80499,-11.36874 4.89874,-16.41125 8.13257,-36.29373 7.56128,-76.24875 -2.28369,-112.11249 -1.33252,-4.75751 -2.80621,-9.03876 -7.46881,-11.36874 -8.51746,-3.61499 -21.16742,-0.90378 -29.91876,0.80624 -9.65497,2.19122 -19.87995,4.37872 -29.77991,5.52124 -0.18756,0.95001 0.33496,3.23248 0.42993,4.32623 0.42884,3.37751 0.85761,6.9925 1.24005,10.41626"
           id="path360" />
        <path
           style="fill:#3b3b3c;fill-rule:evenodd"
           d="m 558.02875,307.11374 -3.52619,-39.51373 c -0.0438,-0.47254 0.77124,-1.07004 1.46991,-0.99003 l 7.72754,1.12623 c 0.9588,0.10504 1.6363,0.85751 1.66999,1.23376 l 3.31878,37.19254 c 0.0337,0.37747 -0.61004,0.91247 -1.46875,0.99246 l -7.5675,0.67627 c -0.86127,0.075 -1.58246,-0.24375 -1.62378,-0.7175"
           id="path362" />
        <path
           style="fill:#e9e8e8;fill-rule:evenodd"
           d="m 571.81622,381.07126 c -2,11.27124 5.89753,18.07376 18.1687,7.42001 3.94635,-3.47253 11.79505,-13.13 11.7013,-30.96628 -9.03876,2.42502 -28.25372,14.22129 -29.87,23.54627"
           id="path364" />
        <path
           style="fill:#8d8f93;fill-rule:evenodd"
           d="m 77.43127,257.25372 c 0,-3.04626 -0.71377,-5.41998 -1.45126,-5.41998 l -6.98749,0 c -0.81375,0 -4.13125,3.42374 -4.18252,6.27875 -1.67621,23.06875 -2.845,39.47873 -2.845,56.03125 0,16.36249 1.13003,32.91751 2.83374,55.98624 0.05252,2.8525 3.38003,6.23129 4.19378,6.23129 l 6.98749,0 c 0.73749,0 1.43747,-2.37879 1.43747,-5.37503 -1.21747,-18.97873 -2.23746,-37.76749 -2.23746,-56.88748 0,-19.12504 0.49625,-37.86503 2.25125,-56.84504"
           id="path368" />
        <path
           style="fill:#d2d2d1;fill-rule:evenodd"
           d="m 69.10248,252.30875 c -1.85501,0.61749 -3.56751,4.04126 -3.80374,5.85 -1.04752,15.88626 -2.75876,32.20252 -2.75876,48.23249 -0.61875,21.16626 1.32999,42.62002 2.71127,63.69003 0.33121,1.75998 1.99622,5.18625 3.85123,5.80249 l 6.89752,0 c 1.71375,-3.47125 0.66748,-10.03626 0.38251,-13.74625 -0.95377,-18.21625 -2.09626,-36.91003 -1.61878,-55.17624 0,-16.6 0.85624,-33.20001 2.1875,-49.70755 -0.04876,-1.6662 -0.18997,-3.42245 -0.95123,-4.94497 l -6.89752,0"
           id="path370" />
        <path
           style="fill:#8d8f93;fill-rule:evenodd"
           d="m 35.82874,243.69876 c 2.2825,-11.60501 11.22503,-17.22003 24.06878,-16.74374 l 1.80747,0 1.23751,17.79126 -22.64376,-1.14252 c -3.61249,16.0275 -5.09,43.04748 -5.09,70.25497 0,26.73001 1.2825,53.70252 5.04251,70.39627 l 22.64127,-1.09375 -1.23627,17.79127 -1.75873,0 C 47.05377,401.42874 38.11124,395.815 35.82874,384.20624 32.785,369.36749 32.02499,341.685 32.02499,314 c 0,-23.06879 -0.76376,-47.85001 3.80375,-70.30124"
           id="path372" />
        <path
           style="fill:#8d8f93;fill-rule:evenodd"
           d="m 599.26251,358.33374 0,-0.14499 0.32996,0 -0.32996,0.14499 z m -0.05,-88.47498 0.37995,0.0963 -0.37995,0 0,-0.0963 z M 577.52246,234.47 c 3.23755,-0.57251 7.51758,0.76248 12.55756,5.13873 3.80499,3.52002 11.60626,12.93625 11.69995,30.34629 l 0.47876,0 c 3.99377,12.27252 5.94256,26.2575 5.70752,42.09625 l -0.0487,0 0.0487,0.28375 c -0.0487,1.23749 -0.0487,2.47372 -0.0962,3.75873 l 0.19006,0 c 0.19116,15.84128 -1.71008,29.87253 -5.75501,42.095 l -0.52508,0 c -0.0937,17.45752 -7.84869,26.82999 -11.69995,30.3475 -5.03998,4.37751 -9.32001,5.75626 -12.51251,5.13877 l -5.80127,6.80001 c 2.09375,-0.18753 3.9013,-0.42877 5.375,-0.66503 16.64746,-3.23624 28.2575,-8.94126 30.82501,-18.45374 4.94623,-17.59875 7.23004,-42.43002 7.23004,-67.35623 0,-0.66376 0,-1.28375 0,-1.94876 l -0.05,0 c -0.0925,-24.2125 -2.37622,-48.13748 -7.17999,-65.21503 -2.56751,-9.50998 -14.17755,-15.21997 -30.82501,-18.45499 -1.52002,-0.28375 -3.32874,-0.47497 -5.41999,-0.66372 l 5.80121,6.75247"
           id="path374" />
        <path
           style="fill:#8d8f93;fill-rule:evenodd"
           d="m 493.66498,229.67127 -66.40253,3.46249 c -8.42126,0.42999 -13.27374,2.39001 -13.74878,4.25125 l -1.42615,5.48999 c -0.28503,1.14377 3.80378,1.94751 9.94379,1.94751 l 12.84125,0 c 13.88745,0 25.30371,-0.51126 33.53503,-1.7525 l 26.39746,-3.99124 c 5.75623,-0.85626 9.84748,-2.065 9.79871,-3.52375 l -0.0962,-4.61001 c 0,-0.88251 -5.94367,-1.53375 -10.84247,-1.27374"
           id="path376" />
        <path
           style="fill:#d2d2d1;fill-rule:evenodd"
           d="m 464.02997,243.12875 4.945,-11.70248 -41.66748,2.1875 c -2.945,0.14123 -5.94256,0.57123 -8.84753,1.28375 -5.04126,1.33374 -4.51874,2.61749 -5.8963,8.03876 0,1.0487 7.42126,1.42624 8.32385,1.42624 14.36621,0 28.82495,0.23874 43.14246,-1.23377"
           id="path378" />
        <path
           style="fill:#d2d2d1;fill-rule:evenodd"
           d="m 473.63751,231.1875 -4.75622,11.22748 c 10.94244,-1.6175 22.26123,-2.52249 32.86749,-5.32874 3.37994,-1.09125 2.33124,-2.18875 2.28247,-5.99252 -0.95001,-0.95123 -8.22998,-0.95123 -9.46503,-0.95123 l -20.92871,1.04501"
           id="path380" />
        <path
           style="fill:#8d8f93;fill-rule:evenodd"
           d="m 504.69995,230.19125 c 1.37878,0 2.52252,-0.57126 4.23255,-2.38125 2.75744,-2.90003 1.37872,-4.51874 0.47625,-7.89502 -1.00006,-3.56623 -0.33374,-2.99747 -2.71124,-6.51496 -1.47376,-2.09378 -3.04627,-2.37878 -5.66126,-2.37878 -1.33374,0 -2.66381,1.09375 -2.38006,2.37878 l 3.66382,14.40998 c 0.28497,1.2875 1.09625,2.38125 2.37994,2.38125"
           id="path382" />
        <path
           style="fill:#8d8f93;fill-rule:evenodd"
           d="m 504.9375,230.19125 c 1.33002,-0.0488 2.71375,-0.90628 4.04126,-2.38125 0.47876,-0.42752 0.76251,-0.90247 1.00122,-1.3775 1.90253,2.80624 3.23627,8.46502 0.66626,8.60748 -2.23755,0.24005 -3.2362,-0.0937 -4.23627,-0.33121 -1.28125,-0.23877 -1.90246,-2.75876 -1.47247,-4.51752"
           id="path384" />
        <path
           style="fill:#8d8f93;fill-rule:evenodd"
           d="m 417.36499,232.56751 2.95129,0 c 1.99878,0 3.6637,-0.34128 3.6637,-0.75251 l 0,-2.73001 c 0,-0.40497 -1.61871,-0.74875 -3.6637,-0.74875 l -2.95129,0 c -2.04376,0 -3.66126,0.32999 -3.66126,0.74875 l 0,2.73001 c 0,0.42374 1.6175,0.75251 3.66126,0.75251"
           id="path386" />
        <path
           style="fill:#e9e8e8;fill-rule:evenodd"
           d="m 571.81622,247.0275 c -2,-11.27253 5.89753,-18.07499 18.1687,-7.41877 3.94635,3.47251 11.79505,13.12748 11.7013,30.965 -9.03876,-2.42499 -28.25372,-14.22372 -29.87,-23.54623"
           id="path390" />
        <path
           style="fill:#3b3b3c;fill-rule:evenodd"
           d="m 598.90125,354.76623 c 1.635,-0.47372 2.45379,-1.04748 3.31127,-2.56997 0.57245,-0.95001 1.49122,-2.57001 1.57373,-5.32749 1.83881,-7.99002 2.83747,-20.31002 2.83747,-32.67752 0,-12.36752 -1.305,-24.68628 -2.81745,-32.63 -0.0812,-2.71124 -1.00128,-4.33002 -1.57501,-5.32749 -0.85748,-1.52127 -1.67505,-2.09252 -3.31122,-2.52002 3.10742,13.31873 4.06745,26.63501 4.39496,39.90748 0.34876,13.88879 -2.16376,28.82379 -4.41376,41.14502"
           id="path404" />
        <path
           style="fill:#e9e8e8;fill-rule:evenodd"
           d="m 606.44122,314.23874 c 0,3.11749 -0.75622,5.66 -1.68744,5.66 -0.93127,0 -1.68628,-2.54251 -1.68628,-5.66 0,-3.11624 0.75501,-5.66122 1.68628,-5.66122 0.93122,0 1.68744,2.54498 1.68744,5.66122"
           id="path406" />
        <path
           style="fill:#211d1d;fill-rule:nonzero"
           d="m 161.03622,383.19003 224.65,0.49872 0,-0.0187 -224.65,-0.5"
           id="path866" />
        <path
           style="fill:#211d1d;fill-rule:nonzero"
           d="m 385.68622,383.68875 c 3.59253,0 6.375,0.13248 8.25873,0.43997 1.88501,0.30753 2.86633,0.79505 2.86383,1.48877 l 0.0187,0 c -0.008,-1.42749 -3.95502,-1.945 -11.1413,-1.94751 l 0,0.0188"
           id="path868" />
        <path
           style="fill:#211d1d;fill-rule:nonzero"
           d="m 396.80878,390.13251 0.019,0 0,-4.51465 -0.019,0 0,4.51465 z"
           id="path870" />
        <path
           style="fill:#211d1d;fill-rule:nonzero"
           d="m 396.80878,390.13251 c 0,0.99624 -0.84882,2.28 -4.12873,2.9425 l 0.004,0.0187 c 3.28375,-0.66251 4.14374,-1.95126 4.14374,-2.96124 l -0.0187,0"
           id="path872" />
        <path
           style="fill:#211d1d;fill-rule:nonzero"
           d="m 392.68005,393.07501 -13.98498,2.89749 0.004,0.0187 13.98499,-2.89749"
           id="path874" />
        <path
           style="fill:#211d1d;fill-rule:nonzero"
           d="m 378.69507,395.9725 c -5.8913,1.21 -7.85877,1.53376 -19.77753,1.53376 -0.40375,0 -0.8175,0 -1.24377,-10e-4 l 0,0.02 c 0.42627,0 0.84002,0 1.24377,0 11.91876,0 13.88995,-0.32373 19.78125,-1.53375 l -0.004,-0.0187"
           id="path876" />
        <path
           style="fill:#211d1d;fill-rule:nonzero"
           d="m 357.67377,397.505 -197.87503,-0.38375 0,0.0187 197.87503,0.38501"
           id="path878" />
        <path
           style="fill:#211d1d;fill-rule:nonzero"
           d="m 285.02997,380.64249 0.52502,20.35876 0.0187,0 -0.52502,-20.35876"
           id="path880" />
        <path
           style="fill:#211d1d;fill-rule:nonzero"
           d="m 593.37628,357.6575 c -16.49872,2.85498 -31.73498,6.565 -45.61871,11.27374 l 0.006,0.0187 c 13.88251,-4.70999 29.1175,-8.41873 45.61622,-11.27249 l -0.004,-0.02"
           id="path882" />
        <path
           style="fill:#211d1d;fill-rule:nonzero"
           d="m 571.93878,382.05875 c -12.44006,2.33496 -26.98755,4.08496 -35.42883,4.08496 -2.04993,0 -3.73999,-0.10373 -4.95123,-0.32624 l -0.004,0.0188 c 1.21375,0.22248 2.90503,0.32624 4.95496,0.32624 8.44379,0 22.99127,-1.75 35.43255,-4.08503 l -0.004,-0.0187"
           id="path884" />
        <path
           style="fill:#211d1d;fill-rule:nonzero"
           d="m 406.74878,400.95252 0.0185,0 0,-22.45026 -0.0185,0 0,22.45026 z"
           id="path888" />
        <path
           style="fill:#211d1d;fill-rule:nonzero"
           d="m 401.94751,400.95252 0.02,0 0,-90.42292 -0.02,0 0,90.42292 z"
           id="path890" />
        <path
           style="fill:#211d1d;fill-rule:nonzero"
           d="m 160.22751,380.745 246.44003,0 0,-0.02 -246.44003,0 0,0.02 z"
           id="path894" />
        <path
           style="fill:#211d1d;fill-rule:nonzero"
           d="m 160.22751,378.46375 246.44003,0 0,-0.019 -246.44003,0 0,0.019 z"
           id="path896" />
        <path
           style="fill:#211d1d;fill-rule:nonzero"
           d="m 516.86499,389.10748 -1.28253,12.17752 0.0188,10e-4 1.28247,-12.17749"
           id="path898" />
        <path
           style="fill:#211d1d;fill-rule:nonzero"
           d="m 161.03622,244.92502 224.65,-0.49625 0,-0.0188 -224.65,0.49625"
           id="path900" />
        <path
           style="fill:#211d1d;fill-rule:nonzero"
           d="m 385.68622,244.42877 c 7.18628,-0.003 11.13373,-0.52252 11.14129,-1.94626 l -0.0187,0 c 0.002,0.69251 -0.97882,1.17874 -2.86383,1.48624 -1.88373,0.30878 -4.6662,0.44125 -8.25873,0.44125 l 0,0.0188"
           id="path902" />
        <path
           style="fill:#211d1d;fill-rule:nonzero"
           d="m 396.80878,242.48251 0.019,0 0,-4.51855 -0.019,0 0,4.51855 z"
           id="path904" />
        <path
           style="fill:#211d1d;fill-rule:nonzero"
           d="m 396.82752,237.96378 c 0,-1.00876 -0.85999,-2.29627 -4.14374,-2.96003 l -0.004,0.0188 c 3.27991,0.66376 4.12873,1.94626 4.12873,2.94126 l 0.0187,0"
           id="path906" />
        <path
           style="fill:#211d1d;fill-rule:nonzero"
           d="m 392.68378,235.00375 -13.98499,-2.89627 -0.004,0.0188 13.98498,2.89624"
           id="path908" />
        <path
           style="fill:#211d1d;fill-rule:nonzero"
           d="m 378.69879,232.10748 c -5.8725,-1.20498 -7.85125,-1.53375 -19.67248,-1.53375 -0.43756,0 -0.88751,0 -1.35254,10e-4 l 0,0.0187 c 0.46503,-0.001 0.91498,-0.001 1.35254,-0.001 11.82245,0 13.7962,0.32877 19.66876,1.53378 l 0.004,-0.0188"
           id="path910" />
        <path
           style="fill:#211d1d;fill-rule:nonzero"
           d="m 357.67377,230.57501 -197.87503,0.38251 0,0.0187 197.87503,-0.38248"
           id="path912" />
        <path
           style="fill:#211d1d;fill-rule:nonzero"
           d="m 285.09875,247.4075 0.52124,-20.31122 -0.0187,0 -0.52253,20.31122"
           id="path914" />
        <path
           style="fill:#211d1d;fill-rule:nonzero"
           d="m 593.38,270.42123 c -16.49871,-2.85372 -31.73376,-6.56375 -45.61621,-11.27249 l -0.006,0.0175 c 13.88373,4.70877 29.11993,8.41998 45.61871,11.27377 l 0.004,-0.0188"
           id="path916" />
        <path
           style="fill:#211d1d;fill-rule:nonzero"
           d="m 571.9425,246.01999 c -12.44128,-2.33377 -26.98877,-4.08374 -35.43255,-4.08374 -2.05121,0 -3.74121,0.10251 -4.95496,0.32623 l 0.004,0.0188 c 1.21124,-0.2225 2.90124,-0.32629 4.95123,-0.32629 8.44128,0 22.98877,1.75006 35.42883,4.08377 l 0.004,-0.0187"
           id="path918" />
        <path
           style="fill:#211d1d;fill-rule:nonzero"
           d="m 406.79999,249.64377 0.019,0 0,-22.44977 -0.019,0 0,22.44977 z"
           id="path922" />
        <path
           style="fill:#211d1d;fill-rule:nonzero"
           d="m 160.22751,247.37122 246.44003,0 0,-0.0185 -246.44003,0 0,0.0185 z"
           id="path926" />
        <path
           style="fill:#211d1d;fill-rule:nonzero"
           d="m 160.22751,249.65375 246.44003,0 0,-0.02 -246.44003,0 0,0.02 z"
           id="path928" />
        <path
           style="fill:#211d1d;fill-rule:nonzero"
           d="m 516.93372,239.035 -1.28504,-12.17498 -0.0187,0.001 1.28498,12.1763"
           id="path930" />
        <path
           style="fill:#211d1d;fill-rule:nonzero"
           d="m 597.76373,358.90625 c 3.37128,-13.09375 5.74372,-27.20499 5.74372,-43.88126 0,-1.73874 -0.0263,-3.50622 -0.0787,-5.30371 l -0.02,0.001 c 0.0538,1.79627 0.0787,3.56375 0.0787,5.30249 0,16.67502 -2.37122,30.78379 -5.7425,43.87629 l 0.0188,0.005"
           id="path952" />
        <path
           style="fill:#211d1d;fill-rule:nonzero"
           d="m 597.69873,269.57752 c 3.36999,13.09121 5.74127,27.195 5.74127,43.86621 0,1.74252 -0.0262,3.51254 -0.08,5.3125 l 0.02,0 c 0.0525,-1.79996 0.0787,-3.56998 0.0787,-5.3125 0,-16.67249 -2.37122,-30.77872 -5.74121,-43.87122 l -0.0187,0.005"
           id="path954" />
        <rect
           style="fill:#d2d2d1"
           ry="6.5167699"
           transform="matrix(1.25,0,0,1.25,0,750)"
           y="-413.62198"
           x="69.721901"
           height="13.03354"
           width="248.53607"
           id="rect4902" />
        <path
           style="fill:#8d8f93;fill-rule:evenodd"
           d="m 331.02869,238.73853 0.005,4.88616 c 0.004,3.30918 0.22778,6.0644 0.49512,6.06269 l 1.77447,-0.0113 c 0.26319,-0.001 0.48401,-2.6832 0.48066,-6.06891 l -0.005,-4.8862 c -0.004,-3.38367 -0.22052,-6.06027 -0.49268,-6.05854 l -1.77447,0.0113 c -0.27545,0.001 -0.48645,2.68113 -0.48309,6.06479"
           id="path386-4-4" />
        <path
           style="fill:#8d8f93;fill-rule:evenodd"
           d="m 371.07471,239.0986 0.005,4.88617 c 0.004,3.30918 0.22779,6.06433 0.49506,6.06262 l 1.77447,-0.0112 c 0.26325,-0.001 0.48407,-2.68316 0.48072,-6.06894 l -0.005,-4.88614 c -0.004,-3.38366 -0.22046,-6.06027 -0.49261,-6.05853 l -1.77454,0.0113 c -0.27539,10e-4 -0.48645,2.68112 -0.48309,6.06479"
           id="path386-4-4-6" />
        <path
           style="fill:#8d8f93;fill-rule:evenodd"
           d="m 291.883,238.87537 0.005,4.72491 c 0.004,3.20001 0.22784,5.86426 0.49512,5.86264 l 1.77447,-0.0113 c 0.26325,-0.001 0.48401,-2.5946 0.48065,-5.86868 l -0.005,-4.72495 c -0.004,-3.272 -0.22046,-5.86032 -0.49268,-5.85864 l -1.77447,0.0113 c -0.27539,0.001 -0.48645,2.59265 -0.48309,5.86472"
           id="path386-4-4-4" />
        <path
           style="fill:#8d8f93;fill-rule:evenodd"
           d="m 251.12079,239.04361 0.005,4.72494 c 0.004,3.20002 0.22785,5.86426 0.49512,5.86258 l 1.77448,-0.0112 c 0.26324,-0.001 0.484,-2.59463 0.48065,-5.86868 l -0.005,-4.72494 c -0.004,-3.27204 -0.22046,-5.86033 -0.49267,-5.85862 l -1.77448,0.0113 c -0.27539,0.001 -0.48645,2.59266 -0.48309,5.86469"
           id="path386-4-4-4-0" />
        <path
           style="fill:#8d8f93;fill-rule:evenodd"
           d="m 211.23367,239.04361 0.005,4.72494 c 0.004,3.20002 0.22781,5.86426 0.49512,5.86258 l 1.77444,-0.0112 c 0.26325,-0.001 0.48404,-2.59463 0.48068,-5.86868 l -0.005,-4.72494 c -0.004,-3.27204 -0.22049,-5.86033 -0.49268,-5.85862 l -1.77447,0.0113 c -0.27542,0.001 -0.48645,2.59266 -0.4831,5.86469"
           id="path386-4-4-4-2" />
        <path
           style="fill:#8d8f93;fill-rule:evenodd"
           d="m 171.23367,239.04361 0.005,4.72494 c 0.004,3.20002 0.22781,5.86426 0.49512,5.86258 l 1.77444,-0.0112 c 0.26325,-0.001 0.48404,-2.59463 0.48068,-5.86868 l -0.005,-4.72494 c -0.004,-3.27204 -0.22049,-5.86033 -0.49268,-5.85862 l -1.77447,0.0113 c -0.27542,0.001 -0.48645,2.59266 -0.4831,5.86469"
           id="path386-4-4-4-2-9" />
        <rect
           style="fill:#d2d2d1"
           transform="matrix(1.25,0,0,1.25,0,750)"
           ry="6.5167699"
           y="-296.02197"
           x="68.823029"
           height="13.03354"
           width="249.43494"
           id="rect4902-7" />
        <path
           style="fill:#8d8f93;fill-rule:evenodd"
           d="m 331.02869,385.73856 0.005,4.88614 c 0.004,3.3092 0.22778,6.06436 0.49512,6.06265 l 1.77447,-0.0113 c 0.26319,-10e-4 0.48401,-2.68317 0.48066,-6.06891 l -0.005,-4.88614 c -0.004,-3.38373 -0.22052,-6.0603 -0.49268,-6.05856 l -1.77447,0.0112 c -0.27545,0.001 -0.48645,2.68115 -0.48309,6.06485"
           id="path386-4-4-43" />
        <path
           style="fill:#8d8f93;fill-rule:evenodd"
           d="m 371.07471,386.0986 0.005,4.88614 c 0.004,3.30921 0.22779,6.06439 0.49506,6.06265 l 1.77447,-0.0113 c 0.26325,-10e-4 0.48407,-2.68313 0.48072,-6.06891 l -0.005,-4.88616 c -0.004,-3.38367 -0.22046,-6.06025 -0.49268,-6.05854 l -1.77447,0.0113 c -0.27539,0.001 -0.48645,2.68113 -0.48309,6.06482"
           id="path386-4-4-6-7" />
        <path
           style="fill:#8d8f93;fill-rule:evenodd"
           d="m 291.883,385.87537 0.005,4.72494 c 0.004,3.20001 0.22784,5.86426 0.49512,5.86261 l 1.77447,-0.0112 c 0.26325,-0.001 0.48407,-2.59463 0.48072,-5.86868 l -0.005,-4.72495 c -0.004,-3.27203 -0.22052,-5.86032 -0.49274,-5.85861 l -1.77441,0.0112 c -0.27545,0.001 -0.48651,2.59271 -0.48315,5.86472"
           id="path386-4-4-4-5" />
        <path
           style="fill:#8d8f93;fill-rule:evenodd"
           d="m 251.12079,386.04358 0.005,4.72494 c 0.004,3.20002 0.22785,5.86426 0.49512,5.86261 l 1.77448,-0.0113 c 0.26324,-10e-4 0.48407,-2.5946 0.48071,-5.86865 l -0.005,-4.72494 c -0.004,-3.27207 -0.22052,-5.86032 -0.49273,-5.85865 l -1.77442,0.0113 c -0.27545,10e-4 -0.48651,2.59266 -0.48315,5.86469"
           id="path386-4-4-4-0-6" />
        <path
           style="fill:#8d8f93;fill-rule:evenodd"
           d="m 211.23367,386.04358 0.005,4.72494 c 0.004,3.20002 0.22781,5.86426 0.49512,5.86261 l 1.77444,-0.0113 c 0.26325,-10e-4 0.48404,-2.5946 0.48068,-5.86865 l -0.005,-4.72494 c -0.004,-3.27207 -0.22049,-5.86032 -0.49268,-5.85865 l -1.77447,0.0113 c -0.27542,10e-4 -0.48645,2.59266 -0.4831,5.86469"
           id="path386-4-4-4-2-8" />
        <path
           style="fill:#8d8f93;fill-rule:evenodd"
           d="m 171.23367,386.04358 0.005,4.72494 c 0.004,3.20002 0.22781,5.86426 0.49512,5.86261 l 1.77444,-0.0113 c 0.26325,-10e-4 0.48404,-2.5946 0.48068,-5.86865 l -0.005,-4.72494 c -0.004,-3.27207 -0.22049,-5.86032 -0.49268,-5.85865 l -1.77447,0.0113 c -0.27542,10e-4 -0.48645,2.59266 -0.4831,5.86469"
           id="path386-4-4-4-2-9-1" />
      </g>
    </g>
  </g>
</svg>
